<mxfile host="app.diagrams.net" modified="2022-09-22T12:04:49.284Z" agent="5.0 (Windows NT 10.0; Win64; x64) AppleWebKit/537.36 (KHTML, like Gecko) Chrome/104.0.5112.102 Safari/537.36 OPR/90.0.4480.100" etag="cZu1PWwN-BsmGLyDw4fB" version="20.3.3" type="github">
  <diagram id="tXTnSrVkO6NxYnPtoYDi" name="PÃ¡gina-1">
    <mxGraphModel dx="1931" dy="565" grid="1" gridSize="10" guides="1" tooltips="1" connect="1" arrows="1" fold="1" page="1" pageScale="1" pageWidth="827" pageHeight="1169" math="0" shadow="0">
      <root>
        <mxCell id="0" />
        <mxCell id="1" parent="0" />
        <mxCell id="sOkp2SHZvLKqqa1OrtA6-1" value="Notebook&lt;span style=&quot;white-space: pre;&quot;&gt; &lt;/span&gt;" style="whiteSpace=wrap;html=1;aspect=fixed;" parent="1" vertex="1">
          <mxGeometry x="180" y="240" width="110" height="110" as="geometry" />
        </mxCell>
        <mxCell id="sOkp2SHZvLKqqa1OrtA6-2" value="Banco de Dados" style="whiteSpace=wrap;html=1;aspect=fixed;" parent="1" vertex="1">
          <mxGeometry x="420" y="240" width="110" height="110" as="geometry" />
        </mxCell>
        <mxCell id="sOkp2SHZvLKqqa1OrtA6-4" value="Data Viz" style="whiteSpace=wrap;html=1;aspect=fixed;" parent="1" vertex="1">
          <mxGeometry x="640" y="240" width="110" height="110" as="geometry" />
        </mxCell>
        <mxCell id="sOkp2SHZvLKqqa1OrtA6-9" style="edgeStyle=none;rounded=0;orthogonalLoop=1;jettySize=auto;html=1;exitX=0;exitY=0.5;exitDx=0;exitDy=0;entryX=1;entryY=0.5;entryDx=0;entryDy=0;" parent="1" source="sOkp2SHZvLKqqa1OrtA6-6" target="sOkp2SHZvLKqqa1OrtA6-5" edge="1">
          <mxGeometry relative="1" as="geometry">
            <mxPoint x="480" y="180" as="sourcePoint" />
            <mxPoint x="490" y="100" as="targetPoint" />
          </mxGeometry>
        </mxCell>
        <mxCell id="sOkp2SHZvLKqqa1OrtA6-5" value="Postgres&lt;br&gt;AWS" style="whiteSpace=wrap;html=1;aspect=fixed;" parent="1" vertex="1">
          <mxGeometry x="414" y="50" width="110" height="110" as="geometry" />
        </mxCell>
        <mxCell id="sOkp2SHZvLKqqa1OrtA6-6" value="Metabase" style="whiteSpace=wrap;html=1;aspect=fixed;" parent="1" vertex="1">
          <mxGeometry x="640" y="50" width="110" height="110" as="geometry" />
        </mxCell>
        <mxCell id="sOkp2SHZvLKqqa1OrtA6-8" style="edgeStyle=none;rounded=0;orthogonalLoop=1;jettySize=auto;html=1;exitX=1;exitY=0.5;exitDx=0;exitDy=0;" parent="1" source="sOkp2SHZvLKqqa1OrtA6-7" target="sOkp2SHZvLKqqa1OrtA6-5" edge="1">
          <mxGeometry relative="1" as="geometry" />
        </mxCell>
        <mxCell id="sOkp2SHZvLKqqa1OrtA6-7" value="Notebook&lt;br&gt;Ec2" style="whiteSpace=wrap;html=1;aspect=fixed;" parent="1" vertex="1">
          <mxGeometry x="180" y="50" width="110" height="110" as="geometry" />
        </mxCell>
        <mxCell id="sOkp2SHZvLKqqa1OrtA6-11" value="" style="endArrow=none;dashed=1;html=1;rounded=0;" parent="1" edge="1">
          <mxGeometry width="50" height="50" relative="1" as="geometry">
            <mxPoint x="150" y="210" as="sourcePoint" />
            <mxPoint x="770" y="210" as="targetPoint" />
          </mxGeometry>
        </mxCell>
        <mxCell id="sOkp2SHZvLKqqa1OrtA6-13" value="Cloud" style="text;html=1;align=center;verticalAlign=middle;resizable=0;points=[];autosize=1;strokeColor=none;fillColor=none;" parent="1" vertex="1">
          <mxGeometry x="715" y="165" width="50" height="30" as="geometry" />
        </mxCell>
        <mxCell id="KQXKJH6ail1gWJ7R5zul-3" style="edgeStyle=orthogonalEdgeStyle;rounded=0;orthogonalLoop=1;jettySize=auto;html=1;exitX=-0.003;exitY=0.612;exitDx=0;exitDy=0;exitPerimeter=0;entryX=1;entryY=0.5;entryDx=0;entryDy=0;" edge="1" parent="1" source="sOkp2SHZvLKqqa1OrtA6-7" target="KQXKJH6ail1gWJ7R5zul-5">
          <mxGeometry relative="1" as="geometry">
            <mxPoint x="-20" y="105" as="targetPoint" />
            <Array as="points">
              <mxPoint x="180" y="105" />
              <mxPoint x="-10" y="105" />
            </Array>
          </mxGeometry>
        </mxCell>
        <mxCell id="KQXKJH6ail1gWJ7R5zul-4" style="edgeStyle=orthogonalEdgeStyle;rounded=0;orthogonalLoop=1;jettySize=auto;html=1;" edge="1" parent="1" source="KQXKJH6ail1gWJ7R5zul-2">
          <mxGeometry relative="1" as="geometry">
            <mxPoint x="180" y="300" as="targetPoint" />
            <Array as="points">
              <mxPoint x="90" y="300" />
              <mxPoint x="180" y="300" />
            </Array>
          </mxGeometry>
        </mxCell>
        <mxCell id="KQXKJH6ail1gWJ7R5zul-8" style="edgeStyle=orthogonalEdgeStyle;rounded=0;orthogonalLoop=1;jettySize=auto;html=1;entryX=0.5;entryY=0;entryDx=0;entryDy=0;" edge="1" parent="1" target="KQXKJH6ail1gWJ7R5zul-2">
          <mxGeometry relative="1" as="geometry">
            <mxPoint x="85.12820512820508" y="110" as="targetPoint" />
            <mxPoint x="85" y="100" as="sourcePoint" />
          </mxGeometry>
        </mxCell>
        <mxCell id="KQXKJH6ail1gWJ7R5zul-2" value="Github" style="whiteSpace=wrap;html=1;aspect=fixed;" vertex="1" parent="1">
          <mxGeometry x="50" y="170" width="70" height="70" as="geometry" />
        </mxCell>
        <mxCell id="KQXKJH6ail1gWJ7R5zul-5" value="S3&lt;br&gt;AWS" style="whiteSpace=wrap;html=1;aspect=fixed;" vertex="1" parent="1">
          <mxGeometry x="-120" y="55" width="110" height="110" as="geometry" />
        </mxCell>
        <mxCell id="KQXKJH6ail1gWJ7R5zul-7" style="edgeStyle=orthogonalEdgeStyle;rounded=0;orthogonalLoop=1;jettySize=auto;html=1;exitX=0.5;exitY=0;exitDx=0;exitDy=0;" edge="1" parent="1" source="KQXKJH6ail1gWJ7R5zul-6">
          <mxGeometry relative="1" as="geometry">
            <mxPoint x="-65" y="170" as="targetPoint" />
          </mxGeometry>
        </mxCell>
        <mxCell id="KQXKJH6ail1gWJ7R5zul-6" value="Streamlit" style="whiteSpace=wrap;html=1;aspect=fixed;" vertex="1" parent="1">
          <mxGeometry x="-120" y="250" width="110" height="110" as="geometry" />
        </mxCell>
      </root>
    </mxGraphModel>
  </diagram>
</mxfile>
